<svg width="22" height="19" viewBox="0 0 22 19" fill="none" xmlns="http://www.w3.org/2000/svg">
<path d="M21.3809 1.09406C21.3129 0.988483 21.2195 0.901655 21.1093 0.841541C20.9991 0.781427 20.8755 0.749951 20.7499 0.75H13.2499C13.106 0.750056 12.9651 0.791544 12.844 0.86951C12.723 0.947476 12.627 1.05863 12.5674 1.18969L11.7443 3H1.62493C1.47965 3.00001 1.33751 3.04222 1.21576 3.12149C1.09402 3.20076 0.997917 3.31368 0.939135 3.44654C0.880354 3.57939 0.861423 3.72646 0.884641 3.86987C0.90786 4.01328 0.972229 4.14686 1.06993 4.25437L4.36149 7.875L1.06993 11.4956C0.972229 11.6031 0.90786 11.7367 0.884641 11.8801C0.861423 12.0235 0.880354 12.1706 0.939135 12.3035C0.997917 12.4363 1.09402 12.5492 1.21576 12.6285C1.33751 12.7078 1.47965 12.75 1.62493 12.75H8.47712C8.62108 12.7499 8.76198 12.7085 8.883 12.6305C9.00403 12.5525 9.10005 12.4414 9.15962 12.3103L9.98274 10.5H15.8356L12.5674 17.6897C12.5236 17.7797 12.4982 17.8777 12.4927 17.9777C12.4873 18.0777 12.502 18.1778 12.5359 18.2721C12.5698 18.3663 12.6223 18.4529 12.6902 18.5265C12.7581 18.6002 12.84 18.6595 12.9312 18.7009C13.0224 18.7424 13.121 18.7652 13.2211 18.7679C13.3213 18.7707 13.4209 18.7533 13.5143 18.7169C13.6076 18.6805 13.6927 18.6258 13.7645 18.5559C13.8363 18.4861 13.8934 18.4026 13.9324 18.3103L21.4324 1.81031C21.4844 1.69614 21.507 1.57075 21.4979 1.44562C21.4889 1.32048 21.4487 1.19961 21.3809 1.09406ZM7.9943 11.25H3.31993L5.92993 8.37937C6.05536 8.24134 6.12486 8.06151 6.12486 7.875C6.12486 7.68849 6.05536 7.50866 5.92993 7.37063L3.31993 4.5H11.0627L7.9943 11.25ZM16.5171 9H10.6643L13.7327 2.25H19.5856L16.5171 9Z" fill="#77413A"/>
</svg>
