<svg width="64" height="41" viewBox="0 0 64 41" fill="none" xmlns="http://www.w3.org/2000/svg">
<path d="M18.616 0C20.46 0 22.164 0.14 23.728 0.56C25.288 0.84 26.572 1.424 27.712 2.124C28.852 2.824 29.7 3.828 30.276 5.112C30.836 6.392 31.14 7.956 31.14 9.66C31.14 11.644 30.716 13.348 29.716 14.628C28.856 15.908 27.452 17.052 25.728 17.896C28.152 18.6 29.996 19.88 31.12 21.584C32.244 23.288 32.964 25.412 32.964 27.836C32.964 29.82 32.544 31.524 31.824 32.948C31.1084 34.3831 30.0301 35.6062 28.696 36.496C27.416 37.356 25.852 38.056 24.148 38.48C22.479 38.9219 20.7623 39.1584 19.036 39.184L0 39.212V0H18.616ZM17.476 15.912C19.036 15.912 20.316 15.492 21.304 14.772C22.288 14.052 22.724 12.784 22.724 11.224C22.724 10.36 22.584 9.52 22.304 8.956C21.9984 8.38616 21.5592 7.89892 21.024 7.536C20.4446 7.21779 19.8241 6.9809 19.18 6.832C18.476 6.692 17.756 6.692 16.912 6.692H8.68V15.932C8.68 15.912 17.476 15.912 17.476 15.912ZM17.896 32.684C18.756 32.684 19.6 32.544 20.32 32.404C21.024 32.264 21.744 31.98 22.304 31.54C22.864 31.1 23.304 30.68 23.728 29.98C24.008 29.276 24.288 28.416 24.288 27.416C24.288 25.432 23.728 24.008 22.584 23.008C21.444 22.148 19.88 21.728 18.036 21.728H8.68V32.664H17.9L17.896 32.684ZM45.328 32.544C46.4693 33.6827 48.1733 34.2507 50.44 34.248C52 34.248 53.424 33.824 54.568 33.104C55.704 32.2507 56.4107 31.3973 56.688 30.544H63.648C62.504 33.948 60.8 36.372 58.536 37.936C56.272 39.356 53.564 40.2 50.296 40.2C48.206 40.2127 46.1328 39.8257 44.188 39.06C42.4348 38.4131 40.8713 37.3378 39.64 35.932C38.3233 34.6244 37.3456 33.0152 36.792 31.244C36.092 29.4 35.792 27.416 35.792 25.132C35.792 23.008 36.072 21.004 36.792 19.16C37.512 17.32 38.496 15.752 39.78 14.332C41.06 13.052 42.624 11.908 44.328 11.204C46.2275 10.4458 48.2548 10.0588 50.3 10.064C52.724 10.064 54.848 10.484 56.692 11.484C58.532 12.484 59.96 13.612 61.1 15.316C62.24 16.876 63.084 18.72 63.664 20.708C63.944 22.692 64.084 24.692 63.944 26.96H43.344C43.344 29.28 44.184 31.4 45.328 32.544ZM54.288 17.616C53.288 16.616 51.72 16.052 49.876 16.052C48.596 16.052 47.612 16.332 46.752 16.756C45.892 17.18 45.328 17.756 44.768 18.316C44.2458 18.8654 43.8978 19.5572 43.768 20.304C43.624 21.004 43.488 21.584 43.488 22.144H56.272C55.992 20.04 55.276 18.616 54.288 17.616ZM41.78 2.704H57.692V6.532H41.78V2.704Z" fill="#925049"/>
</svg>
