<svg width="56" height="56" viewBox="0 0 56 56" fill="none" xmlns="http://www.w3.org/2000/svg">
<path d="M28 18.68C22.84 18.68 18.68 22.88 18.68 28C18.68 33.12 22.88 37.32 28 37.32C33.12 37.32 37.32 33.12 37.32 28C37.32 22.88 33.12 18.68 28 18.68ZM56 28C56 24.12 56 20.32 55.8 16.44C55.6 11.96 54.56 7.96 51.28 4.72C48 1.44 44.04 0.4 39.56 0.2C35.68 -1.93715e-07 31.88 0 28 0C24.12 0 20.32 -1.93715e-07 16.44 0.2C11.96 0.4 7.96 1.44 4.72 4.72C1.44 8 0.4 11.96 0.2 16.44C-1.93715e-07 20.32 0 24.12 0 28C0 31.88 -1.93715e-07 35.68 0.2 39.56C0.4 44.04 1.44 48.04 4.72 51.28C8 54.56 11.96 55.6 16.44 55.8C20.32 56 24.12 56 28 56C31.88 56 35.68 56 39.56 55.8C44.04 55.6 48.04 54.56 51.28 51.28C54.56 48 55.6 44.04 55.8 39.56C56.04 35.72 56 31.88 56 28ZM28 42.36C20.04 42.36 13.64 35.96 13.64 28C13.64 20.04 20.04 13.64 28 13.64C35.96 13.64 42.36 20.04 42.36 28C42.36 35.96 35.96 42.36 28 42.36ZM42.96 16.4C41.12 16.4 39.6 14.92 39.6 13.04C39.6 11.16 41.08 9.68 42.96 9.68C44.84 9.68 46.32 11.16 46.32 13.04C46.3301 13.4781 46.2501 13.9137 46.085 14.3197C45.9199 14.7256 45.6731 15.0933 45.36 15.4C45.0533 15.7131 44.6856 15.9599 44.2797 16.125C43.8737 16.2901 43.4381 16.3701 43 16.36L42.96 16.4Z" fill="#925049"/>
</svg>
