<svg width="70" height="73" viewBox="0 0 70 73" fill="none" xmlns="http://www.w3.org/2000/svg">
<path d="M33.4555 0.641602C36.757 0.641602 39.8105 0.899935 42.6005 1.6646C45.3957 2.1761 47.6845 3.1991 49.715 4.47527C51.7507 5.75316 53.2749 7.54255 54.2875 9.84344C55.3054 12.1426 55.8169 14.9584 55.8169 18.0223C55.8169 21.6028 55.0522 24.6666 53.2749 26.9658C51.7507 29.2701 49.2087 31.3109 46.1604 32.8454C50.4797 34.1268 53.7812 36.4259 55.8169 39.4898C57.8525 42.5536 59.1184 46.3924 59.1184 50.7376C59.1184 54.3181 58.3537 57.3819 57.0827 59.9394C55.8169 62.4969 53.7812 64.7961 51.4924 66.3306C49.005 67.9735 46.257 69.1824 43.3652 69.9059C40.3169 70.6758 37.2685 71.1873 34.2202 71.1873H0.166687V0.641602H33.4555ZM31.4199 29.2649C34.215 29.2649 36.5039 28.5003 38.2812 27.2241C40.0585 25.9479 40.8232 23.6436 40.8232 20.8329C40.8232 19.2984 40.5648 17.7639 40.0585 16.7461C39.5522 15.7283 38.7875 14.9533 37.7749 14.1886C36.7394 13.6071 35.6258 13.1773 34.4682 12.9124C33.1972 12.6541 31.9314 12.6541 30.402 12.6541H15.6667V29.2701L31.4199 29.2649ZM32.1845 59.4279C33.7087 59.4279 35.2329 59.1696 36.5039 58.9164C37.7749 58.6581 39.0459 58.1518 40.0585 57.3819C41.0898 56.6294 41.9551 55.6727 42.6005 54.5713C43.1069 53.2951 43.6184 51.7606 43.6184 49.9729C43.6184 46.3924 42.6005 43.8349 40.57 42.0473C38.5344 40.5128 35.7392 39.7481 32.4377 39.7481H15.6667V59.4331L32.1845 59.4279ZM81.2265 59.1696C83.2587 61.2156 86.3071 62.2386 90.3715 62.2386C93.1667 62.2386 95.7087 61.4739 97.7392 60.1978C99.7748 58.6615 101.046 57.127 101.552 55.5943H114.004C111.968 61.7271 108.92 66.0723 104.859 68.8829C100.788 71.4404 95.9619 72.9749 90.1183 72.9749C86.3801 72.9805 82.6739 72.2865 79.1908 70.9289C76.0553 69.7595 73.2604 67.8276 71.0585 65.3076C68.6938 62.9586 66.9487 60.0596 65.9797 56.8704C64.7087 53.5483 64.1972 49.9729 64.1972 45.8809C64.1972 42.0473 64.7087 38.4719 65.9797 35.1446C67.1989 31.9392 69.0093 28.9913 71.3168 26.4543C73.6005 24.1551 76.3957 22.1143 79.444 20.8329C82.8373 19.4705 86.4617 18.7758 90.1183 18.7869C94.4377 18.7869 98.2507 19.5568 101.552 21.3444C104.859 23.1321 107.396 25.1781 109.426 28.2471C111.462 31.0578 112.991 34.3799 114.004 37.9604C114.51 41.5358 114.763 45.1163 114.51 49.2031H77.6667C77.6667 53.2951 79.1908 57.1288 81.2265 59.1748M97.2329 32.3391C95.4555 30.5514 92.6603 29.5284 89.3537 29.5284C87.4149 29.4994 85.4975 29.9371 83.7634 30.8046C82.2392 31.5744 81.2265 32.5974 80.2087 33.6204C79.2675 34.6045 78.6477 35.8514 78.4314 37.1958C78.173 38.4771 77.9199 39.4949 77.9199 40.5179H100.788C100.281 36.6843 99.0102 34.1319 97.2329 32.3391ZM74.8715 5.49827H103.33V12.4009H74.8767L74.8715 5.49827Z" fill="#527FEE"/>
</svg>
