<svg width="68" height="83" viewBox="0 0 68 83" fill="none" xmlns="http://www.w3.org/2000/svg">
<path d="M92.5617 6.53817C85.69 3.33484 78.25 1.00984 70.5 -0.333496C70.3637 -0.331555 70.2337 -0.275842 70.1383 -0.178495C69.2083 1.5265 68.1233 3.74817 67.4 5.45317C59.1798 4.21395 50.8202 4.21395 42.6 5.45317C41.8767 3.6965 40.7917 1.5265 39.81 -0.178495C39.7583 -0.281828 39.6033 -0.333496 39.4483 -0.333496C31.6983 1.00984 24.31 3.33484 17.3867 6.53817C17.335 6.53817 17.2833 6.58984 17.2317 6.6415C3.17834 27.6698 -0.696661 48.1298 1.21501 68.3832C1.21501 68.4865 1.26667 68.5898 1.37001 68.6415C10.67 75.4615 19.6083 79.5948 28.4433 82.3332C28.5983 82.3848 28.7533 82.3332 28.805 82.2298C30.8717 79.3882 32.7317 76.3915 34.3333 73.2398C34.4367 73.0332 34.3333 72.8265 34.1267 72.7748C31.1817 71.6382 28.3917 70.2948 25.6533 68.7448C25.4467 68.6415 25.4467 68.3315 25.6017 68.1765C26.17 67.7632 26.7383 67.2982 27.3067 66.8848C27.41 66.7815 27.565 66.7815 27.6683 66.8332C45.4417 74.9448 64.61 74.9448 82.1767 66.8332C82.28 66.7815 82.435 66.7815 82.5383 66.8848C83.1067 67.3498 83.675 67.7632 84.2433 68.2282C84.45 68.3832 84.45 68.6932 84.1917 68.7965C81.505 70.3982 78.6633 71.6898 75.7183 72.8265C75.5117 72.8782 75.46 73.1365 75.5117 73.2915C77.165 76.4432 79.025 79.4398 81.04 82.2815C81.195 82.3332 81.35 82.3848 81.505 82.3332C90.3917 79.5948 99.33 75.4615 108.63 68.6415C108.733 68.5898 108.785 68.4865 108.785 68.3832C111.058 44.9782 105.013 24.6732 92.7683 6.6415C92.7167 6.58984 92.665 6.53817 92.5617 6.53817ZM37.02 56.0348C31.6983 56.0348 27.255 51.1265 27.255 45.0815C27.255 39.0365 31.595 34.1282 37.02 34.1282C42.4967 34.1282 46.8367 39.0882 46.785 45.0815C46.785 51.1265 42.445 56.0348 37.02 56.0348ZM73.0317 56.0348C67.71 56.0348 63.2667 51.1265 63.2667 45.0815C63.2667 39.0365 67.6067 34.1282 73.0317 34.1282C78.5083 34.1282 82.8483 39.0882 82.7967 45.0815C82.7967 51.1265 78.5083 56.0348 73.0317 56.0348Z" fill="#3070CF"/>
</svg>
