<svg width="65" height="93" viewBox="0 0 65 93" fill="none" xmlns="http://www.w3.org/2000/svg">
<path d="M57.3113 -10.6665C63.1238 -10.651 66.074 -10.62 68.6212 -10.5477L69.6235 -10.5115C70.7808 -10.4702 71.9226 -10.4185 73.3021 -10.3565C78.7995 -10.0982 82.5505 -9.23017 85.8416 -7.954C89.2516 -6.64167 92.1243 -4.86434 94.997 -1.99684C97.6252 0.585114 99.6583 3.7096 100.954 7.15849C102.23 10.4497 103.098 14.2007 103.357 19.7032C103.419 21.0775 103.47 22.2193 103.512 23.3818L103.543 24.3842C103.62 26.9262 103.651 29.8763 103.661 35.6888L103.667 39.5432V46.3115C103.679 50.0801 103.64 53.8487 103.548 57.6162L103.517 58.6185C103.475 59.781 103.424 60.9228 103.362 62.2972C103.103 67.7997 102.225 71.5455 100.954 74.8418C99.6583 78.2907 97.6252 81.4152 94.997 83.9972C92.415 86.6254 89.2905 88.6584 85.8416 89.9543C82.5505 91.2305 78.7995 92.0985 73.3021 92.3568L69.6235 92.5118L68.6212 92.5428C66.074 92.6152 63.1238 92.6513 57.3113 92.6617L53.457 92.6668H46.6938C42.9235 92.6801 39.1532 92.6405 35.384 92.548L34.3817 92.517C33.1551 92.4705 31.9289 92.4172 30.703 92.3568C25.2057 92.0985 21.4547 91.2305 18.1583 89.9543C14.7113 88.6578 11.5886 86.6248 9.00815 83.9972C6.37804 81.4157 4.34322 78.2912 3.04582 74.8418C1.76966 71.5507 0.901655 67.7997 0.643322 62.2972L0.488322 58.6185L0.462489 57.6162C0.367247 53.8487 0.324187 50.0801 0.333322 46.3115V35.6888C0.319021 31.9203 0.356914 28.1517 0.446989 24.3842L0.483156 23.3818C0.524489 22.2193 0.576155 21.0775 0.638155 19.7032C0.896489 14.2007 1.76449 10.4548 3.04066 7.15849C4.34108 3.70819 6.37948 0.583583 9.01332 -1.99684C11.5923 -4.62383 14.7131 -6.65679 18.1583 -7.954C21.4547 -9.23017 25.2005 -10.0982 30.703 -10.3565C32.0773 -10.4185 33.2243 -10.4702 34.3817 -10.5115L35.384 -10.5425C39.1515 -10.6343 42.9201 -10.6739 46.6887 -10.6613L57.3113 -10.6665ZM52 15.1668C45.1486 15.1668 38.5778 17.8885 33.7331 22.7332C28.8884 27.5779 26.1667 34.1487 26.1667 41.0002C26.1667 47.8516 28.8884 54.4224 33.7331 59.2671C38.5778 64.1118 45.1486 66.8335 52 66.8335C58.8514 66.8335 65.4222 64.1118 70.2669 59.2671C75.1116 54.4224 77.8333 47.8516 77.8333 41.0002C77.8333 34.1487 75.1116 27.5779 70.2669 22.7332C65.4222 17.8885 58.8514 15.1668 52 15.1668ZM52 25.5002C54.0355 25.4998 56.0511 25.9004 57.9318 26.679C59.8125 27.4577 61.5213 28.5991 62.9609 30.0382C64.4004 31.4772 65.5424 33.1858 66.3217 35.0662C67.101 36.9466 67.5022 38.9621 67.5026 40.9976C67.5029 43.0331 67.1023 45.0487 66.3237 46.9294C65.5451 48.81 64.4036 50.5189 62.9646 51.9585C61.5255 53.398 59.817 54.54 57.9366 55.3193C56.0561 56.0986 54.0406 56.4998 52.0052 56.5002C47.8943 56.5002 43.9518 54.8671 41.045 51.9603C38.1382 49.0535 36.5052 45.111 36.5052 41.0002C36.5052 36.8893 38.1382 32.9468 41.045 30.04C43.9518 27.1332 47.8943 25.5002 52.0052 25.5002M79.1301 7.41683C77.4173 7.41683 75.7746 8.09726 74.5634 9.30843C73.3522 10.5196 72.6718 12.1623 72.6718 13.8752C72.6718 15.588 73.3522 17.2307 74.5634 18.4419C75.7746 19.6531 77.4173 20.3335 79.1301 20.3335C80.843 20.3335 82.4857 19.6531 83.6969 18.4419C84.9081 17.2307 85.5885 15.588 85.5885 13.8752C85.5885 12.1623 84.9081 10.5196 83.6969 9.30843C82.4857 8.09726 80.843 7.41683 79.1301 7.41683Z" fill="#CA2078"/>
</svg>
