<svg width="56" height="44" viewBox="0 0 56 44" fill="none" xmlns="http://www.w3.org/2000/svg">
<path d="M47.3867 4.21335C43.84 2.56002 40 1.36002 36 0.666687C35.9296 0.667689 35.8626 0.696444 35.8133 0.746688C35.3333 1.62669 34.7733 2.77335 34.4 3.65335C30.1573 3.01376 25.8427 3.01376 21.6 3.65335C21.2267 2.74669 20.6667 1.62669 20.16 0.746688C20.1333 0.693354 20.0533 0.666687 19.9733 0.666687C15.9733 1.36002 12.16 2.56002 8.58665 4.21335C8.55999 4.21335 8.53332 4.24002 8.50665 4.26669C1.25332 15.12 -0.74668 25.68 0.239987 36.1334C0.239987 36.1867 0.266654 36.24 0.319987 36.2667C5.11999 39.7867 9.73332 41.92 14.2933 43.3334C14.3733 43.36 14.4533 43.3334 14.48 43.28C15.5467 41.8134 16.5067 40.2667 17.3333 38.64C17.3867 38.5334 17.3333 38.4267 17.2267 38.4C15.7067 37.8134 14.2667 37.12 12.8533 36.32C12.7467 36.2667 12.7467 36.1067 12.8267 36.0267C13.12 35.8134 13.4133 35.5734 13.7067 35.36C13.76 35.3067 13.84 35.3067 13.8933 35.3334C23.0667 39.52 32.96 39.52 42.0267 35.3334C42.08 35.3067 42.16 35.3067 42.2133 35.36C42.5067 35.6 42.8 35.8134 43.0933 36.0534C43.2 36.1334 43.2 36.2934 43.0667 36.3467C41.68 37.1734 40.2133 37.84 38.6933 38.4267C38.5867 38.4534 38.56 38.5867 38.5867 38.6667C39.44 40.2934 40.4 41.84 41.44 43.3067C41.52 43.3334 41.6 43.36 41.68 43.3334C46.2667 41.92 50.88 39.7867 55.68 36.2667C55.7333 36.24 55.76 36.1867 55.76 36.1334C56.9333 24.0534 53.8133 13.5734 47.4933 4.26669C47.4667 4.24002 47.44 4.21335 47.3867 4.21335ZM18.72 29.76C15.9733 29.76 13.68 27.2267 13.68 24.1067C13.68 20.9867 15.92 18.4534 18.72 18.4534C21.5467 18.4534 23.7867 21.0134 23.76 24.1067C23.76 27.2267 21.52 29.76 18.72 29.76ZM37.3067 29.76C34.56 29.76 32.2667 27.2267 32.2667 24.1067C32.2667 20.9867 34.5067 18.4534 37.3067 18.4534C40.1333 18.4534 42.3733 21.0134 42.3467 24.1067C42.3467 27.2267 40.1333 29.76 37.3067 29.76Z" fill="#FED9D9"/>
</svg>
